<svg width="242" height="203" xmlns="http://www.w3.org/2000/svg" xmlns:xlink="http://www.w3.org/1999/xlink" xml:space="preserve" overflow="hidden"><g transform="translate(-699 -162)"><path d="M753.406 456.018 753.639 458.594 749.946 458.594C751.37 459.56 752.243 460.936 752.243 462.694 752.243 466.558 748.258 468.11 742.819 468.11 741.305 468.11 739.881 467.993 738.66 467.73 738.078 468.228 737.03 469.487 737.437 470.453 739.328 469.925 743.227 469.048 746.687 469.048 750.294 469.048 753.464 469.984 753.464 473.205 753.464 478.183 745.786 478.417 742.79 478.417 736.971 478.417 733.452 477.539 732.376 477.188L733.19 473.352C733.281 473.372 733.431 473.404 733.638 473.447L733.914 473.502C735.424 473.798 738.926 474.375 743.691 474.375 746.28 474.375 748.956 474.23 748.956 473.352 748.956 472.532 746.658 472.298 743.866 472.298 741.394 472.298 738.513 472.473 736.477 472.678 735.284 472.591 733.918 471.712 733.831 469.985 734.005 469.076 734.761 467.934 736.536 467.085 734.587 466.237 733.394 464.801 733.394 462.694 733.394 458.829 737.555 456.836 742.819 456.836 743.982 456.836 745.058 456.954 746.076 457.129 747.385 456.632 750.527 456.018 753.406 456.018ZM857.805 451.713 857.805 472.648 853.965 472.648 853.675 470.423 853.646 470.394C852.715 471.33 849.893 473.088 845.705 473.088 839.828 473.088 836.484 469.662 836.484 464.86 836.484 460.263 839.538 456.838 846.316 456.838 849.049 456.838 851.376 457.393 853.441 458.272L853.471 458.243 853.441 456.545 853.441 452.152ZM717.964 456.836C725.294 456.836 727.94 459.999 727.94 464.217L727.94 467.993C727.94 468.549 728.145 469.048 729.367 469.048 729.802 469.048 730.356 468.989 731.083 468.842L731.083 472.65C729.599 472.941 728.436 473.088 727.505 473.088 724.043 473.088 723.869 471.33 723.781 470.394 722.356 472.063 718.982 473.088 716.306 473.088 712.088 473.088 709.208 471.126 709.208 467.524 709.208 463.776 712.932 462.752 716.655 462.752 719.243 462.752 722.094 463.249 723.549 463.717 723.403 462.165 721.949 460.936 717.964 460.936 714.765 460.936 712.205 461.551 711.536 461.785L710.14 457.95C711.012 457.627 714.241 456.836 717.964 456.836ZM800.757 456.836C807.506 456.836 811.228 460.234 811.228 464.948 811.228 469.662 807.506 473.088 800.757 473.088 794.008 473.088 790.286 469.662 790.286 464.948 790.286 460.234 794.008 456.836 800.757 456.836ZM823.817 456.836C830.565 456.836 834.289 460.234 834.289 464.948 834.289 469.662 830.565 473.088 823.817 473.088 817.069 473.088 813.345 469.662 813.345 464.948 813.345 460.234 817.069 456.836 823.817 456.836ZM768.153 456.838 767.978 461.142C765.476 460.878 761.958 461.229 760.299 462.87L760.299 472.648 755.936 472.648 755.936 457.481 760.154 457.042 760.27 459.297 760.299 459.326C762.714 457.276 765.419 456.838 768.153 456.838ZM785.236 451.743C786.312 451.743 787.562 451.888 788.959 452.152L788.959 455.52C787.94 455.432 787.127 455.373 786.487 455.373 785.091 455.373 784.509 455.725 784.509 457.13L784.509 457.276 788.407 457.276 788.407 460.906 784.509 460.906 784.509 472.648 780.146 472.648 780.146 460.906 778.109 460.906 778.109 457.276 780.146 457.276 780.146 457.13C780.146 453.119 781.978 451.743 785.236 451.743ZM775.297 457.043 775.297 472.648 770.934 472.648 770.934 457.481ZM723.577 465.68 716.422 465.68C715.026 465.68 713.659 466.031 713.659 467.232 713.659 468.755 715.201 469.369 717.062 469.369 719.855 469.369 723.433 467.993 723.577 466.237ZM846.752 460.908C842.33 460.908 840.934 462.605 840.934 464.889 840.934 467.29 842.505 469.018 846.257 469.018 849.864 469.018 853.268 467.408 853.441 466.353L853.441 461.815C851.29 461.346 848.962 460.908 846.752 460.908ZM800.757 460.908C796.744 460.908 794.736 462.606 794.736 464.948 794.736 467.29 796.744 469.018 800.757 469.018 804.771 469.018 806.779 467.29 806.779 464.948 806.779 462.606 804.771 460.908 800.757 460.908ZM823.817 460.908C819.803 460.908 817.796 462.606 817.796 464.948 817.796 467.29 819.803 469.018 823.817 469.018 827.831 469.018 829.838 467.29 829.838 464.948 829.838 462.606 827.831 460.908 823.817 460.908ZM742.819 460.936C739.996 460.936 737.844 461.522 737.844 462.694 737.844 463.923 739.996 464.48 742.819 464.48 745.641 464.48 747.793 463.923 747.793 462.694 747.793 461.522 745.641 460.936 742.819 460.936ZM775.297 451.918 775.297 455.432 770.934 455.432 770.934 451.918Z" fill="#4DC10A" fill-rule="evenodd" transform="matrix(1.00064 0 0 1 -6.32035 -113.417)"/><path d="M755.245 412.568 741.891 412.534C741.477 412.533 741.14 412.868 741.139 413.284 741.139 413.284 741.139 413.285 741.139 413.286L741.139 445.738C741.139 446.153 740.802 446.489 740.388 446.489L720.755 446.489C720.341 446.489 720.004 446.153 720.004 445.738L720.004 413.286C720.004 412.871 719.668 412.536 719.253 412.536 719.253 412.536 719.252 412.536 719.251 412.536L705.898 412.569C705.483 412.571 705.146 412.235 705.145 411.821 705.145 411.82 705.145 411.818 705.145 411.818L705.145 396.154C705.145 395.74 705.481 395.403 705.896 395.403L755.246 395.403C755.661 395.403 755.997 395.74 755.997 396.154L755.997 411.818C755.997 412.234 755.661 412.569 755.246 412.569 755.245 412.569 755.245 412.569 755.244 412.569ZM809.488 446.489 766.434 446.489C766.02 446.489 765.683 446.152 765.683 445.738L765.683 396.153C765.683 395.739 766.02 395.402 766.434 395.402L809.488 395.402C809.904 395.402 810.239 395.739 810.239 396.153L810.239 409.531C810.239 409.945 809.904 410.282 809.488 410.282L786.318 410.282C785.904 410.282 785.567 410.617 785.567 411.032L785.567 414.758C785.567 415.173 785.904 415.509 786.318 415.509L808.3 415.509C808.716 415.509 809.053 415.845 809.053 416.26L809.053 425.401C809.053 425.817 808.716 426.152 808.3 426.152L786.318 426.152C785.904 426.152 785.567 426.489 785.567 426.903L785.567 430.857C785.567 431.272 785.904 431.608 786.318 431.608L809.488 431.608C809.904 431.608 810.239 431.944 810.239 432.359L810.239 445.738C810.239 446.152 809.904 446.489 809.488 446.489ZM819.926 396.153 819.926 445.738C819.926 446.152 820.261 446.489 820.677 446.489L840.281 446.489C840.695 446.489 841.032 446.152 841.032 445.738 841.032 445.736 841.032 445.735 841.032 445.734L840.961 429.578C840.959 429.162 841.294 428.824 841.709 428.823 841.71 428.823 841.712 428.823 841.713 428.823L861.547 428.823C861.963 428.823 862.298 428.486 862.298 428.072L862.298 417.403C862.298 416.988 861.963 416.652 861.547 416.652L840.748 416.652C840.334 416.652 839.997 416.316 839.997 415.901L839.997 411.795C839.997 411.38 840.334 411.044 840.748 411.044L862.278 411.044C862.694 411.044 863.029 410.707 863.029 410.293L863.029 396.153C863.029 395.737 862.694 395.402 862.278 395.402L820.677 395.402C820.263 395.402 819.926 395.737 819.926 396.153Z" fill="#075D49" fill-rule="evenodd" transform="matrix(1.00064 0 0 1 -6.32035 -113.417)"/><path d="M536.355 25.0104 536.355 54.468C536.355 54.6926 536.538 54.875 536.761 54.875L563.342 54.875C563.419 54.875 563.478 54.8139 563.478 54.7385 563.478 54.7385 563.478 54.7385 563.478 54.7385L563.478 46.0077C563.478 45.8836 563.379 45.7828 563.255 45.7828 563.255 45.7828 563.255 45.7828 563.255 45.7828L548.536 45.7828C548.511 45.7828 548.49 45.7626 548.49 45.7372L548.49 42.9529C548.49 42.835 548.586 42.7394 548.704 42.7394L562.625 42.7394C562.678 42.7394 562.721 42.6966 562.721 42.6436 562.721 42.6436 562.721 42.6433 562.721 42.6433L562.721 36.5491C562.721 36.4312 562.625 36.3357 562.507 36.3357L548.536 36.3357C548.511 36.3357 548.49 36.3152 548.49 36.2901L548.49 33.5172C548.49 33.3929 548.592 33.2923 548.716 33.2923 548.716 33.2923 548.716 33.2923 548.716 33.2923L563.348 33.2923C563.419 33.2923 563.478 33.2337 563.478 33.1611L563.478 24.9625C563.478 24.7378 563.298 24.5556 563.072 24.5556L536.811 24.5556C536.559 24.5556 536.355 24.7593 536.355 25.0104Z" fill="#075D49" fill-rule="evenodd" transform="matrix(1 0 0 1.03391 377.247 279.014)"/><path d="M476.855-16.4106 465.847-16.4106C464.674-16.4106 463.725-15.4604 463.725-14.2882L463.725 12.8014C463.725 13.4129 464.221 13.9086 464.832 13.9086L477.079 13.9086C478.723 13.9086 480.364 13.9087 482.008 13.9089 488.832 13.7328 494.22 8.0588 494.044 1.2356 494.044 1.23524 494.044 1.23488 494.044 1.23452L494.044-4.6755C494.044-11.123 488.835-16.3596 482.389-16.395L482.231-16.3958C480.438-16.4057 478.645-16.4106 476.855-16.4106ZM479.501 4.81673 474.87 4.81673C474.399 4.81673 474.02 4.43643 474.02 3.96725L474.02-6.71964C474.02-7.05047 474.287-7.31866 474.619-7.31866 474.619-7.31866 474.619-7.31866 474.619-7.31866L479.427-7.31866C481.167-7.31866 482.579-5.90794 482.579-4.16773L482.579 1.73985C482.579 3.43917 481.198 4.81673 479.501 4.81673Z" fill="#075D49" fill-rule="evenodd" transform="matrix(1 0 0 1.03391 415.752 321.37)"/><path d="M875.283 404.567 875.283 463.117" stroke="#075D49" stroke-width="3.75462" stroke-linecap="round" fill="none" fill-rule="evenodd" transform="matrix(1.00064 0 0 1 -6.32035 -113.417)"/><path d="M634.398 440.948C635.131 441.68 635.131 442.869 634.398 443.603L630.12 447.879 630.118 458.93 639.599 449.461C639.951 449.111 640.429 448.913 640.926 448.913L654.584 448.913C655.62 448.913 656.461 449.753 656.461 450.79 656.461 451.826 655.62 452.667 654.584 452.667L641.703 452.667 607.239 487.092C606.552 487.779 605.464 487.822 604.727 487.22L604.585 487.091C603.851 486.358 603.852 485.169 604.586 484.437L626.364 462.681 626.365 447.103C626.365 446.605 626.563 446.128 626.915 445.775L631.743 440.948C632.475 440.215 633.664 440.215 634.398 440.948ZM685.236 405.254C685.901 405.419 686.422 405.935 686.597 406.597 691.976 427.045 686.264 448.982 671.03 464.217 657.671 477.577 639.115 483.679 620.751 481.233 619.723 481.096 619.001 480.151 619.137 479.124 619.275 478.096 620.219 477.374 621.246 477.511 638.464 479.805 655.851 474.088 668.374 461.562 682.19 447.746 687.649 428.055 683.425 409.432L683.239 408.636 683.074 408.598C676.101 407.022 668.93 406.777 661.968 407.791L661.968 420.749 658.213 420.749 658.213 408.464C647.987 410.644 638.387 415.581 630.758 423.028L630.3 423.482C617.791 435.992 612.073 453.357 614.345 470.558 614.482 471.587 613.758 472.529 612.731 472.666 611.703 472.801 610.76 472.079 610.623 471.05 608.199 452.704 614.302 434.172 627.644 420.827 642.593 405.877 664.817 400.152 685.236 405.254Z" fill="#075D49" transform="matrix(1.00064 0 0 1 186.655 -224.54)"/><path d="M630.455 386.651 640.853 389.244C642.789 389.727 644.007 391.644 643.623 393.602L643.15 396.004 643.445 396.15C644.256 396.563 645.053 397.001 645.834 397.464L646.123 397.64 647.902 395.975C649.298 394.669 651.441 394.63 652.881 395.849L653.065 396.015 656.69 399.517C657.436 400.238 657.457 401.426 656.736 402.172 656.017 402.917 654.828 402.939 654.082 402.218L650.461 398.721 647.635 401.368C647.049 401.917 646.185 402.029 645.485 401.663L645.326 401.57C643.706 400.513 642.009 399.58 640.25 398.777 639.459 398.417 639.019 397.561 639.186 396.707L639.936 392.884 629.553 390.297 628.411 394.059C628.176 394.832 627.478 395.362 626.683 395.389L626.512 395.388C624.599 395.283 622.677 395.323 620.759 395.508 619.893 395.592 619.084 395.072 618.802 394.248L617.52 390.506 607.234 393.456 608.139 397.343C608.323 398.13 607.981 398.94 607.305 399.361L607.155 399.446C605.443 400.308 603.805 401.295 602.25 402.401 601.543 402.904 600.582 402.855 599.929 402.284L596.918 399.656 589.485 407.355 592.232 410.292C592.781 410.88 592.891 411.745 592.525 412.445L592.431 412.604C591.386 414.199 590.46 415.87 589.661 417.602 589.299 418.389 588.445 418.826 587.595 418.658L583.65 417.883 581.062 428.27 584.885 429.431C585.661 429.667 586.191 430.37 586.217 431.166L586.213 431.339C586.101 433.242 586.132 435.155 586.308 437.065 586.387 437.927 585.866 438.733 585.047 439.013L581.271 440.303 584.221 450.594 588.073 449.698C588.863 449.514 589.675 449.859 590.095 450.54L590.179 450.69C591.038 452.416 592.023 454.067 593.125 455.634 593.624 456.341 593.573 457.296 593.005 457.948L590.42 460.911 598.118 468.347 600.96 465.686C601.55 465.134 602.419 465.025 603.12 465.397L603.279 465.491C604.524 466.315 605.817 467.068 607.15 467.742 608.075 468.21 608.447 469.339 607.979 470.264 607.511 471.189 606.38 471.559 605.456 471.091 604.578 470.648 603.716 470.173 602.871 469.67L602.464 469.419 600.678 471.093C599.282 472.4 597.138 472.439 595.699 471.219L595.515 471.053 587.806 463.607C586.371 462.22 586.274 459.953 587.586 458.45L589.226 456.567 589.048 456.297C588.561 455.536 588.098 454.76 587.66 453.968L587.506 453.684 585.067 454.252C583.194 454.689 581.31 453.637 580.681 451.846L580.615 451.636 577.661 441.332C577.111 439.414 578.162 437.401 580.049 436.755L582.461 435.928 582.442 435.61C582.398 434.71 582.383 433.81 582.398 432.912L582.406 432.602 579.964 431.861C578.126 431.302 577.019 429.45 577.37 427.584L577.417 427.369 580.009 416.969C580.492 415.032 582.408 413.813 584.367 414.199L586.896 414.694 587.035 414.418C587.446 413.621 587.88 412.836 588.34 412.066L588.501 411.8 586.739 409.917C585.432 408.521 585.395 406.377 586.614 404.937L586.779 404.753 594.223 397.044C595.61 395.607 597.879 395.511 599.382 396.824L601.304 398.501 601.562 398.331C602.317 397.842 603.088 397.378 603.874 396.939L604.154 396.784 603.576 394.302C603.14 392.43 604.19 390.545 605.982 389.916L606.193 389.85 616.493 386.895C618.412 386.346 620.425 387.396 621.071 389.284L621.882 391.655 622.204 391.636C623.107 391.587 624.011 391.568 624.913 391.58L625.236 391.587 625.963 389.199C626.543 387.289 628.518 386.169 630.454 386.652ZM660.09 443.402C664.168 443.402 667.474 446.708 667.474 450.786 667.474 454.864 664.168 458.17 660.09 458.17 656.012 458.17 652.706 454.864 652.706 450.786 652.706 446.708 656.012 443.402 660.09 443.402ZM660.09 447.157C658.085 447.157 656.461 448.781 656.461 450.786 656.461 452.79 658.085 454.416 660.09 454.416 662.094 454.416 663.72 452.79 663.72 450.786 663.72 448.781 662.094 447.157 660.09 447.157ZM630.207 411.654C631.21 411.921 631.806 412.949 631.54 413.951 631.274 414.952 630.246 415.549 629.244 415.284 625.97 414.414 622.518 414.437 619.186 415.392 609.134 418.275 603.322 428.764 606.204 438.819 606.927 441.341 608.141 443.643 609.77 445.623 610.428 446.424 610.312 447.606 609.511 448.265 608.711 448.924 607.527 448.808 606.869 448.007 604.916 445.631 603.461 442.872 602.595 439.854 599.142 427.806 606.106 415.238 618.151 411.783 622.14 410.639 626.283 410.613 630.207 411.654ZM637.563 430.136C641.64 430.136 644.947 433.441 644.947 437.52 644.947 441.598 641.64 444.904 637.563 444.904 633.484 444.904 630.179 441.598 630.179 437.52 630.179 433.441 633.484 430.136 637.563 430.136ZM637.563 433.891C635.558 433.891 633.933 435.515 633.933 437.52 633.933 439.524 635.558 441.15 637.563 441.15 639.566 441.15 641.192 439.524 641.192 437.52 641.192 435.515 639.566 433.891 637.563 433.891ZM660.09 417.37C664.168 417.37 667.474 420.676 667.474 424.754 667.474 428.832 664.168 432.138 660.09 432.138 656.012 432.138 652.706 428.832 652.706 424.754 652.706 420.676 656.012 417.37 660.09 417.37ZM660.09 421.125C658.085 421.125 656.461 422.749 656.461 424.754 656.461 426.758 658.085 428.384 660.09 428.384 662.094 428.384 663.72 426.758 663.72 424.754 663.72 422.749 662.094 421.125 660.09 421.125Z" fill="#4DC10A" transform="matrix(1.00064 0 0 1 186.655 -224.54)"/></g></svg>