<?xml version="1.0" encoding="UTF-8" standalone="no"?>
<!-- Created with Inkscape (http://www.inkscape.org/) -->

<svg
   version="1.1"
   id="svg1"
   width="377.94666"
   height="113.38667"
   viewBox="0 0 377.94666 113.38667"
   sodipodi:docname="HS-OS-Logo-Quer-Schwarz-ohne-Hintergrund.eps"
   xmlns:inkscape="http://www.inkscape.org/namespaces/inkscape"
   xmlns:sodipodi="http://sodipodi.sourceforge.net/DTD/sodipodi-0.dtd"
   xmlns="http://www.w3.org/2000/svg"
   xmlns:svg="http://www.w3.org/2000/svg">
   <defs
      id="defs1" />
   <sodipodi:namedview
      id="namedview1"
      pagecolor="#ffffff"
      bordercolor="#000000"
      borderopacity="0.25"
      inkscape:showpageshadow="2"
      inkscape:pageopacity="0.0"
      inkscape:pagecheckerboard="0"
      inkscape:deskcolor="#d1d1d1">
      <inkscape:page
         x="0"
         y="0"
         inkscape:label="1"
         id="page1"
         width="377.94666"
         height="113.38667"
         margin="0"
         bleed="0" />
   </sodipodi:namedview>
   <g
      id="g1"
      inkscape:groupmode="layer"
      inkscape:label="1">
      <g
         id="group-R5">
         <path
            id="path2"
            d="M 954.188,533.684 V 442.59 h -15.133 v 38.863 H 898.293 V 442.59 h -15.219 v 91.094 h 15.219 v -40.051 h 40.762 v 40.051 h 15.133"
            style="fill:#231f20;fill-opacity:1;fill-rule:nonzero;stroke:none"
            transform="matrix(0.13333333,0,0,-0.13333333,0,113.38667)" />
         <path
            id="path3"
            d="m 1033.31,479.941 v 16.524 c 0,15.07 -8.5,26.008 -22.52,26.008 -13.556,0 -21.642,-10.813 -21.642,-26.008 v -16.524 c 0,-15.332 8.125,-26.218 21.702,-26.218 14.08,0 22.46,10.886 22.46,26.218 z m 15.2,16.387 v -16.387 c 0,-22.468 -15.06,-38.671 -37.66,-38.671 -22.205,0 -36.834,16.328 -36.834,38.671 v 16.387 c 0,22.277 14.589,38.664 36.774,38.664 22.58,0 37.72,-16.387 37.72,-38.664 v 0"
            style="fill:#231f20;fill-opacity:1;fill-rule:nonzero;stroke:none"
            transform="matrix(0.13333333,0,0,-0.13333333,0,113.38667)" />
         <path
            id="path4"
            d="m 1120.63,472.121 h 15.18 c -1.8,-19.211 -13.81,-30.851 -34.88,-30.851 -21.6,0 -35.35,15.39 -35.35,38.164 v 17.336 c 0,22.585 14.02,38.222 35.35,38.222 21.5,0 32.95,-11.191 34.94,-31.211 h -15.18 c -1.58,12.696 -6.95,19.012 -19.76,19.012 -12.7,0 -20.22,-10.703 -20.22,-25.898 v -17.461 c 0,-15.45 7.41,-26.024 20.22,-26.024 12.58,0 18.12,6.133 19.7,18.699 v 0.012"
            style="fill:#231f20;fill-opacity:1;fill-rule:nonzero;stroke:none"
            transform="matrix(0.13333333,0,0,-0.13333333,0,113.38667)" />
         <path
            id="path5"
            d="M 1226.57,533.684 V 442.59 h -15.13 v 38.863 h -40.77 V 442.59 h -15.21 v 91.094 h 15.21 v -40.051 h 40.77 v 40.051 h 15.13"
            style="fill:#231f20;fill-opacity:1;fill-rule:nonzero;stroke:none"
            transform="matrix(0.13333333,0,0,-0.13333333,0,113.38667)" />
         <path
            id="path6"
            d="m 1300.56,465.977 c 0,7.707 -4.55,12.019 -19.09,15.851 -20.82,5.488 -31.77,13.375 -31.77,27.891 0,14.961 13.08,25.273 32.61,25.273 20.3,0 33.36,-12.07 33.36,-27.832 h -15.17 c 0,9.512 -6.39,15.703 -18.32,15.703 -11.25,0 -17.29,-5.254 -17.29,-13.019 0,-3.574 1.58,-6.453 4.77,-8.633 3.12,-2.258 8.49,-4.441 16.19,-6.504 19.96,-5.437 29.9,-13.887 29.9,-28.594 0,-15.449 -12.95,-24.843 -33.03,-24.843 -19.45,0 -35.84,10.324 -35.84,28.593 h 15.2 c 0,-11.258 8.14,-16.523 20.64,-16.523 11.47,0 17.84,4.707 17.84,12.637 v 0"
            style="fill:#231f20;fill-opacity:1;fill-rule:nonzero;stroke:none"
            transform="matrix(0.13333333,0,0,-0.13333333,0,113.38667)" />
         <path
            id="path7"
            d="m 1386.67,472.121 h 15.2 c -1.82,-19.211 -13.83,-30.851 -34.93,-30.851 -21.56,0 -35.33,15.39 -35.33,38.164 v 17.336 c 0,22.585 14.02,38.222 35.33,38.222 21.53,0 32.99,-11.191 34.98,-31.211 h -15.21 c -1.54,12.696 -6.93,19.012 -19.77,19.012 -12.67,0 -20.19,-10.703 -20.19,-25.898 v -17.461 c 0,-15.45 7.38,-26.024 20.19,-26.024 12.58,0 18.15,6.133 19.73,18.699 v 0.012"
            style="fill:#231f20;fill-opacity:1;fill-rule:nonzero;stroke:none"
            transform="matrix(0.13333333,0,0,-0.13333333,0,113.38667)" />
         <path
            id="path8"
            d="M 1492.61,533.684 V 442.59 h -15.14 v 38.863 h -40.78 V 442.59 h -15.2 v 91.094 h 15.2 v -40.051 h 40.78 v 40.051 h 15.14"
            style="fill:#231f20;fill-opacity:1;fill-rule:nonzero;stroke:none"
            transform="matrix(0.13333333,0,0,-0.13333333,0,113.38667)" />
         <path
            id="path9"
            d="m 1571.67,533.684 h 15.2 v -61.055 c 0,-20.598 -14.03,-31.359 -35.73,-31.359 -21.27,0 -35.04,10.832 -35.04,31.359 v 61.055 h 15.22 v -61.055 c 0,-13.02 7.5,-19.219 19.82,-19.219 12.78,0 20.53,6.199 20.53,19.219 v 61.055"
            style="fill:#231f20;fill-opacity:1;fill-rule:nonzero;stroke:none"
            transform="matrix(0.13333333,0,0,-0.13333333,0,113.38667)" />
         <path
            id="path10"
            d="m 1625.32,533.684 v -78.957 h 43.54 V 442.59 h -58.73 v 91.094 h 15.19"
            style="fill:#231f20;fill-opacity:1;fill-rule:nonzero;stroke:none"
            transform="matrix(0.13333333,0,0,-0.13333333,0,113.38667)" />
         <path
            id="path11"
            d="m 1742.29,495.762 v -12.196 h -39.84 v -28.839 h 46.23 V 442.59 h -61.42 v 91.094 h 60.97 v -12.207 h -45.8 v -25.715 h 39.86"
            style="fill:#231f20;fill-opacity:1;fill-rule:nonzero;stroke:none"
            transform="matrix(0.13333333,0,0,-0.13333333,0,113.38667)" />
         <path
            id="path12"
            d="m 1872.08,479.941 v 16.524 c 0,15.07 -8.5,26.008 -22.5,26.008 -13.57,0 -21.64,-10.813 -21.64,-26.008 v -16.524 c 0,-15.332 8.12,-26.218 21.7,-26.218 14.08,0 22.44,10.886 22.44,26.218 z m 15.21,16.387 v -16.387 c 0,-22.468 -15.07,-38.671 -37.65,-38.671 -22.21,0 -36.84,16.328 -36.84,38.671 v 16.387 c 0,22.277 14.57,38.664 36.78,38.664 22.58,0 37.71,-16.387 37.71,-38.664 v 0"
            style="fill:#231f20;fill-opacity:1;fill-rule:nonzero;stroke:none"
            transform="matrix(0.13333333,0,0,-0.13333333,0,113.38667)" />
         <path
            id="path13"
            d="m 1956.81,465.977 c 0,7.707 -4.55,12.019 -19.07,15.851 -20.82,5.488 -31.77,13.375 -31.77,27.891 0,14.961 13.08,25.273 32.59,25.273 20.32,0 33.4,-12.07 33.4,-27.832 h -15.19 c 0,9.512 -6.39,15.703 -18.34,15.703 -11.25,0 -17.27,-5.254 -17.27,-13.019 0,-3.574 1.56,-6.453 4.77,-8.633 3.12,-2.258 8.51,-4.441 16.19,-6.504 19.96,-5.437 29.9,-13.887 29.9,-28.594 0,-15.449 -12.93,-24.843 -33.03,-24.843 -19.45,0 -35.82,10.324 -35.82,28.593 h 15.18 c 0,-11.258 8.14,-16.523 20.64,-16.523 11.45,0 17.82,4.707 17.82,12.637 v 0"
            style="fill:#231f20;fill-opacity:1;fill-rule:nonzero;stroke:none"
            transform="matrix(0.13333333,0,0,-0.13333333,0,113.38667)" />
         <path
            id="path14"
            d="M 2063.39,533.684 V 442.59 h -15.14 l -40.58,66.758 -0.2,-0.071 V 442.59 h -15.19 v 91.094 h 15.19 l 40.61,-66.7 0.17,0.067 v 66.633 h 15.14"
            style="fill:#231f20;fill-opacity:1;fill-rule:nonzero;stroke:none"
            transform="matrix(0.13333333,0,0,-0.13333333,0,113.38667)" />
         <path
            id="path15"
            d="m 2119.19,515.285 -13.32,-38.722 h 26.76 l -13.26,38.722 z m 25,-72.695 -7.44,21.777 h -35.08 l -7.5,-21.777 h -15.45 l 33.46,91.094 h 14.45 l 33.01,-91.094 h -15.45"
            style="fill:#231f20;fill-opacity:1;fill-rule:nonzero;stroke:none"
            transform="matrix(0.13333333,0,0,-0.13333333,0,113.38667)" />
         <path
            id="path16"
            d="m 2211.06,484.004 h -20.89 v -29.277 h 19.41 c 10.49,0 16.11,5.011 16.11,14.003 0,9.836 -4.43,15.274 -14.63,15.274 z m -20.89,37.473 v -26.145 h 16.95 c 9.59,0 15.08,4.375 15.08,12.824 0,9.199 -5.45,13.321 -16.7,13.321 z m 19.41,-78.887 h -34.59 v 91.094 h 30.51 c 20.45,0 31.89,-8.02 31.89,-24.844 0,-8.32 -4.88,-15.02 -13.12,-18.195 v -0.196 c 10.74,-2.312 16.56,-10.945 16.56,-21.707 0,-17.461 -11.19,-26.152 -31.25,-26.152 v 0"
            style="fill:#231f20;fill-opacity:1;fill-rule:nonzero;stroke:none"
            transform="matrix(0.13333333,0,0,-0.13333333,0,113.38667)" />
         <path
            id="path17"
            d="m 2277.37,521.477 v -29.973 h 17.68 c 11.19,0 16.66,5.266 16.66,15.019 0,9.329 -5.27,14.954 -16.72,14.954 z m 49.53,-14.454 c 0,-11.203 -5.44,-19.269 -15.41,-23.703 l 20.65,-39.55 v -1.18 h -16.7 l -18.2,36.726 h -19.87 V 442.59 h -15.21 v 91.094 h 32.83 c 20.7,0 31.91,-9.317 31.91,-26.661 v 0"
            style="fill:#231f20;fill-opacity:1;fill-rule:nonzero;stroke:none"
            transform="matrix(0.13333333,0,0,-0.13333333,0,113.38667)" />
         <path
            id="path18"
            d="m 2405.24,556.133 v -13.379 h -15.13 v 13.379 z m -27.77,0 v -13.379 h -15.08 v 13.379 z m 26.47,-22.449 h 15.19 v -61.055 c 0,-20.598 -14,-31.359 -35.72,-31.359 -21.27,0 -35.02,10.832 -35.02,31.359 v 61.055 h 15.19 v -61.055 c 0,-13.02 7.52,-19.219 19.83,-19.219 12.77,0 20.53,6.199 20.53,19.219 v 61.055"
            style="fill:#231f20;fill-opacity:1;fill-rule:nonzero;stroke:none"
            transform="matrix(0.13333333,0,0,-0.13333333,0,113.38667)" />
         <path
            id="path19"
            d="m 2494.74,472.121 h 15.19 c -1.81,-19.211 -13.81,-30.851 -34.9,-30.851 -21.58,0 -35.33,15.39 -35.33,38.164 v 17.336 c 0,22.585 14,38.222 35.33,38.222 21.52,0 32.97,-11.191 34.96,-31.211 h -15.2 c -1.56,12.696 -6.93,19.012 -19.76,19.012 -12.7,0 -20.2,-10.703 -20.2,-25.898 v -17.461 c 0,-15.45 7.39,-26.024 20.2,-26.024 12.58,0 18.14,6.133 19.71,18.699 v 0.012"
            style="fill:#231f20;fill-opacity:1;fill-rule:nonzero;stroke:none"
            transform="matrix(0.13333333,0,0,-0.13333333,0,113.38667)" />
         <path
            id="path20"
            d="m 2583.37,442.59 -29.28,40.047 -9.31,-10.332 V 442.59 h -15.2 v 91.094 h 15.2 v -42.11 l 35.82,42.11 h 18.02 l -34.16,-39.485 38.17,-51.609 h -19.26"
            style="fill:#231f20;fill-opacity:1;fill-rule:nonzero;stroke:none"
            transform="matrix(0.13333333,0,0,-0.13333333,0,113.38667)" />
         <path
            id="path21"
            d="m 916.98,371.523 h 4.399 v -36.277 c 0,-11.887 -7.578,-18.008 -19.301,-18.008 -11.504,0 -19.004,6.121 -19.004,18.008 v 36.277 h 4.414 v -36.277 c 0,-9.308 5.766,-14.308 14.59,-14.308 8.985,0 14.902,5 14.902,14.308 v 36.277"
            style="fill:#231f20;fill-opacity:1;fill-rule:nonzero;stroke:none"
            transform="matrix(0.13333333,0,0,-0.13333333,0,113.38667)" />
         <path
            id="path22"
            d="m 977.605,371.523 v -53.527 h -4.375 l -30.488,46.203 -0.113,-0.039 v -46.164 h -4.414 v 53.527 h 4.414 l 30.508,-46.132 0.093,0.031 v 46.101 h 4.375"
            style="fill:#231f20;fill-opacity:1;fill-rule:nonzero;stroke:none"
            transform="matrix(0.13333333,0,0,-0.13333333,0,113.38667)" />
         <path
            id="path23"
            d="m 1003.02,371.523 v -53.527 h -4.399 v 53.527 h 4.399"
            style="fill:#231f20;fill-opacity:1;fill-rule:nonzero;stroke:none"
            transform="matrix(0.13333333,0,0,-0.13333333,0,113.38667)" />
         <path
            id="path24"
            d="m 1023.17,371.523 16.06,-44.48 1.09,-3.781 h 0.16 l 1.09,3.781 16.1,44.48 h 4.74 l -19.92,-53.527 h -4.18 l -19.92,53.527 h 4.78"
            style="fill:#231f20;fill-opacity:1;fill-rule:nonzero;stroke:none"
            transform="matrix(0.13333333,0,0,-0.13333333,0,113.38667)" />
         <path
            id="path25"
            d="m 1104.7,347.656 v -3.738 h -25.76 v -22.219 h 29.51 v -3.703 h -33.89 v 53.527 h 33.69 v -3.757 h -29.31 v -20.11 h 25.76"
            style="fill:#231f20;fill-opacity:1;fill-rule:nonzero;stroke:none"
            transform="matrix(0.13333333,0,0,-0.13333333,0,113.38667)" />
         <path
            id="path26"
            d="m 1129.72,367.727 v -22.266 h 14.82 c 7.77,0 11.97,4.492 11.97,10.984 0,7.102 -4.57,11.282 -12.98,11.282 z m 31.19,-11.321 c 0,-6.609 -4.08,-11.828 -10.39,-13.711 l 13.18,-24.101 v -0.598 h -4.84 l -12.64,23.703 h -16.5 v -23.703 h -4.38 v 53.481 h 18.19 c 10.99,0 17.38,-5.332 17.38,-15.071 v 0"
            style="fill:#231f20;fill-opacity:1;fill-rule:nonzero;stroke:none"
            transform="matrix(0.13333333,0,0,-0.13333333,0,113.38667)" />
         <path
            id="path27"
            d="m 1209.37,331.113 c 0,6.008 -3.64,9.16 -14.65,12.063 -11.96,2.976 -17.84,7.137 -17.84,15.254 0,8.355 7.29,13.855 18.05,13.855 11.21,0 18.48,-6.797 18.48,-16.035 h -4.38 c 0,7.324 -5.27,12.297 -14.1,12.297 -8.71,0 -13.67,-4.231 -13.67,-10.012 0,-5.469 3.75,-8.711 14.88,-11.504 11.72,-2.976 17.64,-7.488 17.64,-15.84 0,-8.699 -7.58,-13.953 -18.59,-13.953 -10.92,0 -20.02,5.282 -20.02,15.977 h 4.37 c 0,-8.527 7.01,-12.277 15.65,-12.277 8.63,0 14.18,3.972 14.18,10.175 v 0"
            style="fill:#231f20;fill-opacity:1;fill-rule:nonzero;stroke:none"
            transform="matrix(0.13333333,0,0,-0.13333333,0,113.38667)" />
         <path
            id="path28"
            d="m 1236.88,371.523 v -53.527 h -4.39 v 53.527 h 4.39"
            style="fill:#231f20;fill-opacity:1;fill-rule:nonzero;stroke:none"
            transform="matrix(0.13333333,0,0,-0.13333333,0,113.38667)" />
         <path
            id="path29"
            d="m 1292.65,371.523 v -3.757 h -18.19 v -49.77 h -4.39 v 49.77 h -18.15 v 3.757 h 40.73"
            style="fill:#231f20;fill-opacity:1;fill-rule:nonzero;stroke:none"
            transform="matrix(0.13333333,0,0,-0.13333333,0,113.38667)" />
         <path
            id="path30"
            d="m 1305.44,371.523 16.46,-29.746 16.59,29.746 h 5.09 l -19.51,-33.964 v -19.563 h -4.37 v 19.817 l -19.36,33.71 h 5.1"
            style="fill:#231f20;fill-opacity:1;fill-rule:nonzero;stroke:none"
            transform="matrix(0.13333333,0,0,-0.13333333,0,113.38667)" />
         <path
            id="path31"
            d="m 1412.63,340.383 v 8.789 c 0,11.465 -6.17,19.246 -16.57,19.246 -10.15,0 -16.19,-7.781 -16.19,-19.246 v -8.789 c 0,-11.582 6.08,-19.336 16.23,-19.336 10.43,0 16.53,7.723 16.53,19.336 z m 4.41,8.711 v -8.711 c 0,-13.789 -8.18,-23.145 -20.94,-23.145 -12.54,0 -20.62,9.356 -20.62,23.145 v 8.711 c 0,13.711 8.05,23.191 20.58,23.191 12.76,0 20.98,-9.48 20.98,-23.191 v 0"
            style="fill:#231f20;fill-opacity:1;fill-rule:nonzero;stroke:none"
            transform="matrix(0.13333333,0,0,-0.13333333,0,113.38667)" />
         <path
            id="path32"
            d="m 1463.08,346.855 v -3.777 h -26.04 v -25.082 h -4.35 v 53.527 h 34.12 v -3.757 h -29.77 v -20.911 h 26.04"
            style="fill:#231f20;fill-opacity:1;fill-rule:nonzero;stroke:none"
            transform="matrix(0.13333333,0,0,-0.13333333,0,113.38667)" />
         <path
            id="path33"
            d="m 1518.62,366.113 -10.88,-29.258 h 21.61 z m 17.68,-48.117 -5.55,15.109 h -24.41 l -5.57,-15.109 h -4.55 l 20.31,53.527 h 4.16 l 20.18,-53.527 h -4.57"
            style="fill:#231f20;fill-opacity:1;fill-rule:nonzero;stroke:none"
            transform="matrix(0.13333333,0,0,-0.13333333,0,113.38667)" />
         <path
            id="path34"
            d="m 1557.37,367.766 v -23.77 h 14.05 c 9,0 13.26,4.883 13.26,11.824 0,7.024 -4.26,11.946 -13.26,11.946 z m 14.05,-27.532 h -14.05 V 317.996 H 1553 v 53.527 h 18.42 c 11.46,0 17.63,-6.074 17.63,-15.632 0,-9.707 -6.17,-15.664 -17.63,-15.664 v 0.007"
            style="fill:#231f20;fill-opacity:1;fill-rule:nonzero;stroke:none"
            transform="matrix(0.13333333,0,0,-0.13333333,0,113.38667)" />
         <path
            id="path35"
            d="m 1606.2,367.766 v -23.77 h 14.02 c 9.03,0 13.29,4.883 13.29,11.824 0,7.024 -4.26,11.946 -13.29,11.946 z m 14.02,-27.532 h -14.02 v -22.238 h -4.37 v 53.527 h 18.39 c 11.49,0 17.66,-6.074 17.66,-15.632 0,-9.707 -6.17,-15.664 -17.66,-15.664 v 0.007"
            style="fill:#231f20;fill-opacity:1;fill-rule:nonzero;stroke:none"
            transform="matrix(0.13333333,0,0,-0.13333333,0,113.38667)" />
         <path
            id="path36"
            d="m 1656.55,371.523 v -49.824 h 26.47 v -3.703 h -30.86 v 53.527 h 4.39"
            style="fill:#231f20;fill-opacity:1;fill-rule:nonzero;stroke:none"
            transform="matrix(0.13333333,0,0,-0.13333333,0,113.38667)" />
         <path
            id="path37"
            d="m 1703.53,371.523 v -53.527 h -4.42 v 53.527 h 4.42"
            style="fill:#231f20;fill-opacity:1;fill-rule:nonzero;stroke:none"
            transform="matrix(0.13333333,0,0,-0.13333333,0,113.38667)" />
         <path
            id="path38"
            d="m 1754.66,347.656 v -3.738 h -25.74 v -22.219 h 29.49 v -3.703 h -33.87 v 53.527 h 33.69 v -3.757 h -29.31 v -20.11 h 25.74"
            style="fill:#231f20;fill-opacity:1;fill-rule:nonzero;stroke:none"
            transform="matrix(0.13333333,0,0,-0.13333333,0,113.38667)" />
         <path
            id="path39"
            d="m 1790.99,367.766 h -11.2 v -46.067 h 10.86 c 11.49,0 18.52,7.844 18.52,19.602 v 6.992 c 0,11.758 -7.03,19.473 -18.18,19.473 z m -0.34,-49.77 h -15.21 v 53.527 h 15.55 c 13.55,0 22.57,-9.343 22.57,-23.347 v -6.875 c 0,-14.113 -8.94,-23.305 -22.91,-23.305"
            style="fill:#231f20;fill-opacity:1;fill-rule:nonzero;stroke:none"
            transform="matrix(0.13333333,0,0,-0.13333333,0,113.38667)" />
         <path
            id="path40"
            d="m 1885.69,331.113 c 0,6.008 -3.63,9.16 -14.66,12.063 -11.96,2.976 -17.82,7.137 -17.82,15.254 0,8.355 7.27,13.855 18.03,13.855 11.21,0 18.5,-6.797 18.5,-16.035 h -4.38 c 0,7.324 -5.29,12.297 -14.12,12.297 -8.71,0 -13.67,-4.231 -13.67,-10.012 0,-5.469 3.75,-8.711 14.88,-11.504 11.74,-2.976 17.64,-7.488 17.64,-15.84 0,-8.699 -7.56,-13.953 -18.6,-13.953 -10.89,0 -20.02,5.282 -20.02,15.977 h 4.38 c 0,-8.527 7.03,-12.277 15.64,-12.277 8.64,0 14.2,3.972 14.2,10.175 v 0"
            style="fill:#231f20;fill-opacity:1;fill-rule:nonzero;stroke:none"
            transform="matrix(0.13333333,0,0,-0.13333333,0,113.38667)" />
         <path
            id="path41"
            d="m 1937.04,334.66 h 4.38 c -1.18,-11.183 -7.93,-17.422 -19.42,-17.422 -12.15,0 -19.9,9.18 -19.9,23.145 v 8.711 c 0,13.926 7.75,23.191 19.9,23.191 11.58,0 18.28,-6.094 19.42,-17.461 h -4.38 c -1.17,9.094 -5.88,13.723 -15.04,13.723 -9.55,0 -15.51,-7.793 -15.51,-19.375 v -8.789 c 0,-11.723 5.96,-19.445 15.51,-19.445 9.24,0 13.87,4.335 15.04,13.722 v 0"
            style="fill:#231f20;fill-opacity:1;fill-rule:nonzero;stroke:none"
            transform="matrix(0.13333333,0,0,-0.13333333,0,113.38667)" />
         <path
            id="path42"
            d="m 1963.9,371.523 v -53.527 h -4.4 v 53.527 h 4.4"
            style="fill:#231f20;fill-opacity:1;fill-rule:nonzero;stroke:none"
            transform="matrix(0.13333333,0,0,-0.13333333,0,113.38667)" />
         <path
            id="path43"
            d="m 2015.05,347.656 v -3.738 h -25.74 v -22.219 h 29.49 v -3.703 h -33.87 v 53.527 h 33.69 v -3.757 h -29.31 v -20.11 h 25.74"
            style="fill:#231f20;fill-opacity:1;fill-rule:nonzero;stroke:none"
            transform="matrix(0.13333333,0,0,-0.13333333,0,113.38667)" />
         <path
            id="path44"
            d="m 2073.7,371.523 v -53.527 h -4.37 l -30.49,46.203 -0.12,-0.039 v -46.164 h -4.41 v 53.527 h 4.41 l 30.49,-46.132 0.12,0.031 v 46.101 h 4.37"
            style="fill:#231f20;fill-opacity:1;fill-rule:nonzero;stroke:none"
            transform="matrix(0.13333333,0,0,-0.13333333,0,113.38667)" />
         <path
            id="path45"
            d="m 2124.46,334.66 h 4.38 c -1.17,-11.183 -7.95,-17.422 -19.4,-17.422 -12.16,0 -19.92,9.18 -19.92,23.145 v 8.711 c 0,13.926 7.76,23.191 19.92,23.191 11.59,0 18.27,-6.094 19.4,-17.461 h -4.38 c -1.17,9.094 -5.88,13.723 -15.02,13.723 -9.57,0 -15.5,-7.793 -15.5,-19.375 v -8.789 c 0,-11.723 5.93,-19.445 15.5,-19.445 9.22,0 13.85,4.335 15.02,13.722 v 0"
            style="fill:#231f20;fill-opacity:1;fill-rule:nonzero;stroke:none"
            transform="matrix(0.13333333,0,0,-0.13333333,0,113.38667)" />
         <path
            id="path46"
            d="m 2173.84,347.656 v -3.738 h -25.76 v -22.219 h 29.51 v -3.703 h -33.89 v 53.527 h 33.69 v -3.757 h -29.31 v -20.11 h 25.76"
            style="fill:#231f20;fill-opacity:1;fill-rule:nonzero;stroke:none"
            transform="matrix(0.13333333,0,0,-0.13333333,0,113.38667)" />
         <path
            id="path47"
            d="m 2221.44,331.113 c 0,6.008 -3.64,9.16 -14.65,12.063 -11.96,2.976 -17.83,7.137 -17.83,15.254 0,8.355 7.28,13.855 18.04,13.855 11.21,0 18.48,-6.797 18.48,-16.035 h -4.38 c 0,7.324 -5.27,12.297 -14.1,12.297 -8.71,0 -13.67,-4.231 -13.67,-10.012 0,-5.469 3.75,-8.711 14.88,-11.504 11.72,-2.976 17.64,-7.488 17.64,-15.84 0,-8.699 -7.56,-13.953 -18.59,-13.953 -10.92,0 -20.02,5.282 -20.02,15.977 h 4.37 c 0,-8.527 7.03,-12.277 15.65,-12.277 8.63,0 14.18,3.972 14.18,10.175 v 0"
            style="fill:#231f20;fill-opacity:1;fill-rule:nonzero;stroke:none"
            transform="matrix(0.13333333,0,0,-0.13333333,0,113.38667)" />
         <path
            id="path48"
            d="M 712.02,483.637 586.848,433.539 v 100.195 z"
            style="fill:#231f20;fill-opacity:1;fill-rule:nonzero;stroke:none"
            transform="matrix(0.13333333,0,0,-0.13333333,0,113.38667)" />
         <path
            id="path49"
            d="M 378.191,433.539 252.98,483.637 482.527,575.473 V 475.297 L 378.191,433.539"
            style="fill:#231f20;fill-opacity:1;fill-rule:nonzero;stroke:none"
            transform="matrix(0.13333333,0,0,-0.13333333,0,113.38667)" />
         <path
            id="path50"
            d="M 232.117,475.297 V 375.113 l 146.074,-58.449 v 100.188 l -146.074,58.445 z m 4.403,-6.496 137.273,-54.93 V 323.164 L 236.52,378.09 v 90.711"
            style="fill:#231f20;fill-opacity:1;fill-rule:nonzero;stroke:none"
            transform="matrix(0.13333333,0,0,-0.13333333,0,113.38667)" />
         <path
            id="path51"
            d="M 732.898,475.297 482.527,375.113 V 274.918 L 732.898,375.113 V 475.297 Z M 728.5,468.801 V 378.09 L 486.93,281.418 v 90.715 l 241.57,96.668"
            style="fill:#231f20;fill-opacity:1;fill-rule:nonzero;stroke:none"
            transform="matrix(0.13333333,0,0,-0.13333333,0,113.38667)" />
      </g>
   </g>
</svg>