<?xml version="1.0" encoding="UTF-8" standalone="no"?>
<!-- Created with Inkscape (http://www.inkscape.org/) -->

<svg
   version="1.1"
   id="svg1"
   width="316.06668"
   height="40.080002"
   viewBox="0 0 316.06668 40.080002"
   sodipodi:docname="HS-OS-Logo-Quer-Weiss-ohne-Hintergrund.eps"
   xmlns:inkscape="http://www.inkscape.org/namespaces/inkscape"
   xmlns:sodipodi="http://sodipodi.sourceforge.net/DTD/sodipodi-0.dtd"
   xmlns="http://www.w3.org/2000/svg"
   xmlns:svg="http://www.w3.org/2000/svg">
   <defs
      id="defs1" />
   <sodipodi:namedview
      id="namedview1"
      pagecolor="#ffffff"
      bordercolor="#000000"
      borderopacity="0.25"
      inkscape:showpageshadow="2"
      inkscape:pageopacity="0.0"
      inkscape:pagecheckerboard="0"
      inkscape:deskcolor="#d1d1d1">
      <inkscape:page
         x="0"
         y="0"
         inkscape:label="1"
         id="page1"
         width="316.06668"
         height="40.080002"
         margin="0"
         bleed="0" />
   </sodipodi:namedview>
   <g
      id="g1"
      inkscape:groupmode="layer"
      inkscape:label="1">
      <g
         id="group-R5">
         <path
            id="path2"
            d="m 722.07,258.766 v -91.094 h -15.136 v 38.867 h -40.762 v -38.867 h -15.215 v 91.094 h 15.215 v -40.051 h 40.762 v 40.051 h 15.136"
            style="fill:#ffffff;fill-opacity:1;fill-rule:nonzero;stroke:none"
            transform="matrix(0.13333333,0,0,-0.13333333,0,40.08)" />
         <path
            id="path3"
            d="m 801.191,205.023 v 16.524 c 0,15.07 -8.496,26.008 -22.519,26.008 -13.555,0 -21.641,-10.813 -21.641,-26.008 v -16.524 c 0,-15.332 8.125,-26.218 21.699,-26.218 14.083,0 22.461,10.886 22.461,26.218 z m 15.196,16.387 v -16.387 c 0,-22.468 -15.059,-38.671 -37.657,-38.671 -22.207,0 -36.835,16.328 -36.835,38.671 v 16.387 c 0,22.278 14.589,38.664 36.777,38.664 22.578,0 37.715,-16.386 37.715,-38.664 v 0"
            style="fill:#ffffff;fill-opacity:1;fill-rule:nonzero;stroke:none"
            transform="matrix(0.13333333,0,0,-0.13333333,0,40.08)" />
         <path
            id="path4"
            d="m 888.516,197.203 h 15.175 c -1.796,-19.211 -13.808,-30.851 -34.882,-30.851 -21.602,0 -35.352,15.39 -35.352,38.164 v 17.336 c 0,22.586 14.023,38.222 35.352,38.222 21.504,0 32.949,-11.191 34.941,-31.211 h -15.176 c -1.582,12.696 -6.953,19.012 -19.765,19.012 -12.696,0 -20.215,-10.703 -20.215,-25.898 v -17.461 c 0,-15.45 7.402,-26.024 20.215,-26.024 12.578,0 18.125,6.133 19.707,18.699 v 0.012"
            style="fill:#ffffff;fill-opacity:1;fill-rule:nonzero;stroke:none"
            transform="matrix(0.13333333,0,0,-0.13333333,0,40.08)" />
         <path
            id="path5"
            d="m 994.453,258.766 v -91.094 h -15.137 v 38.867 H 938.555 V 167.672 H 923.34 v 91.094 h 15.215 v -40.051 h 40.761 v 40.051 h 15.137"
            style="fill:#ffffff;fill-opacity:1;fill-rule:nonzero;stroke:none"
            transform="matrix(0.13333333,0,0,-0.13333333,0,40.08)" />
         <path
            id="path6"
            d="m 1068.44,191.059 c 0,7.707 -4.55,12.023 -19.08,15.851 -20.82,5.488 -31.78,13.379 -31.78,27.891 0,14.961 13.08,25.273 32.62,25.273 20.29,0 33.35,-12.07 33.35,-27.832 h -15.17 c 0,9.512 -6.39,15.703 -18.32,15.703 -11.25,0 -17.29,-5.254 -17.29,-13.019 0,-3.574 1.59,-6.453 4.77,-8.633 3.12,-2.254 8.5,-4.441 16.19,-6.504 19.96,-5.437 29.9,-13.887 29.9,-28.594 0,-15.449 -12.95,-24.843 -33.02,-24.843 -19.46,0 -35.84,10.324 -35.84,28.593 h 15.19 c 0,-11.257 8.15,-16.523 20.65,-16.523 11.46,0 17.83,4.707 17.83,12.637 v 0"
            style="fill:#ffffff;fill-opacity:1;fill-rule:nonzero;stroke:none"
            transform="matrix(0.13333333,0,0,-0.13333333,0,40.08)" />
         <path
            id="path7"
            d="m 1154.55,197.203 h 15.2 c -1.82,-19.211 -13.83,-30.851 -34.93,-30.851 -21.56,0 -35.33,15.39 -35.33,38.164 v 17.336 c 0,22.586 14.03,38.222 35.33,38.222 21.53,0 32.99,-11.191 34.98,-31.211 h -15.21 c -1.54,12.696 -6.93,19.012 -19.77,19.012 -12.67,0 -20.19,-10.703 -20.19,-25.898 v -17.461 c 0,-15.45 7.38,-26.024 20.19,-26.024 12.58,0 18.15,6.133 19.73,18.699 v 0.012"
            style="fill:#ffffff;fill-opacity:1;fill-rule:nonzero;stroke:none"
            transform="matrix(0.13333333,0,0,-0.13333333,0,40.08)" />
         <path
            id="path8"
            d="m 1260.49,258.766 v -91.094 h -15.14 v 38.867 h -40.78 v -38.867 h -15.19 v 91.094 h 15.19 v -40.051 h 40.78 v 40.051 h 15.14"
            style="fill:#ffffff;fill-opacity:1;fill-rule:nonzero;stroke:none"
            transform="matrix(0.13333333,0,0,-0.13333333,0,40.08)" />
         <path
            id="path9"
            d="m 1339.55,258.766 h 15.2 v -61.055 c 0,-20.598 -14.03,-31.359 -35.73,-31.359 -21.27,0 -35.04,10.832 -35.04,31.359 v 61.055 h 15.22 v -61.055 c 0,-13.02 7.5,-19.219 19.82,-19.219 12.78,0 20.53,6.199 20.53,19.219 v 61.055"
            style="fill:#ffffff;fill-opacity:1;fill-rule:nonzero;stroke:none"
            transform="matrix(0.13333333,0,0,-0.13333333,0,40.08)" />
         <path
            id="path10"
            d="m 1393.2,258.766 v -78.957 h 43.54 v -12.137 h -58.73 v 91.094 h 15.19"
            style="fill:#ffffff;fill-opacity:1;fill-rule:nonzero;stroke:none"
            transform="matrix(0.13333333,0,0,-0.13333333,0,40.08)" />
         <path
            id="path11"
            d="m 1510.18,220.844 v -12.196 h -39.85 v -28.839 h 46.23 v -12.137 h -61.42 v 91.094 h 60.97 v -12.207 h -45.8 v -25.715 h 39.87"
            style="fill:#ffffff;fill-opacity:1;fill-rule:nonzero;stroke:none"
            transform="matrix(0.13333333,0,0,-0.13333333,0,40.08)" />
         <path
            id="path12"
            d="m 1639.96,205.023 v 16.524 c 0,15.07 -8.5,26.008 -22.5,26.008 -13.57,0 -21.64,-10.813 -21.64,-26.008 v -16.524 c 0,-15.332 8.13,-26.218 21.7,-26.218 14.08,0 22.44,10.886 22.44,26.218 z m 15.22,16.387 v -16.387 c 0,-22.468 -15.08,-38.671 -37.66,-38.671 -22.21,0 -36.84,16.328 -36.84,38.671 v 16.387 c 0,22.278 14.57,38.664 36.78,38.664 22.58,0 37.72,-16.386 37.72,-38.664 v 0"
            style="fill:#ffffff;fill-opacity:1;fill-rule:nonzero;stroke:none"
            transform="matrix(0.13333333,0,0,-0.13333333,0,40.08)" />
         <path
            id="path13"
            d="m 1724.69,191.059 c 0,7.707 -4.55,12.023 -19.06,15.851 -20.83,5.488 -31.78,13.379 -31.78,27.891 0,14.961 13.08,25.273 32.6,25.273 20.31,0 33.39,-12.07 33.39,-27.832 h -15.19 c 0,9.512 -6.39,15.703 -18.34,15.703 -11.25,0 -17.27,-5.254 -17.27,-13.019 0,-3.574 1.57,-6.453 4.77,-8.633 3.12,-2.254 8.51,-4.441 16.19,-6.504 19.96,-5.437 29.9,-13.887 29.9,-28.594 0,-15.449 -12.93,-24.843 -33.02,-24.843 -19.46,0 -35.83,10.324 -35.83,28.593 h 15.18 c 0,-11.257 8.15,-16.523 20.65,-16.523 11.44,0 17.81,4.707 17.81,12.637 v 0"
            style="fill:#ffffff;fill-opacity:1;fill-rule:nonzero;stroke:none"
            transform="matrix(0.13333333,0,0,-0.13333333,0,40.08)" />
         <path
            id="path14"
            d="m 1831.27,258.766 v -91.094 h -15.14 l -40.58,66.758 -0.2,-0.071 v -66.687 h -15.19 v 91.094 h 15.19 l 40.61,-66.7 0.17,0.067 v 66.633 h 15.14"
            style="fill:#ffffff;fill-opacity:1;fill-rule:nonzero;stroke:none"
            transform="matrix(0.13333333,0,0,-0.13333333,0,40.08)" />
         <path
            id="path15"
            d="m 1887.07,240.367 -13.32,-38.722 h 26.76 l -13.26,38.722 z m 25,-72.695 -7.44,21.777 h -35.08 l -7.5,-21.777 h -15.45 l 33.46,91.094 h 14.45 l 33.01,-91.094 h -15.45"
            style="fill:#ffffff;fill-opacity:1;fill-rule:nonzero;stroke:none"
            transform="matrix(0.13333333,0,0,-0.13333333,0,40.08)" />
         <path
            id="path16"
            d="m 1978.95,209.086 h -20.9 v -29.277 h 19.41 c 10.49,0 16.11,5.011 16.11,14.004 0,9.835 -4.43,15.273 -14.62,15.273 z m -20.9,37.473 V 220.414 H 1975 c 9.59,0 15.08,4.375 15.08,12.824 0,9.2 -5.45,13.321 -16.7,13.321 z m 19.41,-78.887 h -34.59 v 91.094 h 30.51 c 20.45,0 31.89,-8.02 31.89,-24.844 0,-8.32 -4.88,-15.02 -13.12,-18.195 v -0.196 c 10.74,-2.312 16.56,-10.945 16.56,-21.707 0,-17.461 -11.19,-26.152 -31.25,-26.152 v 0"
            style="fill:#ffffff;fill-opacity:1;fill-rule:nonzero;stroke:none"
            transform="matrix(0.13333333,0,0,-0.13333333,0,40.08)" />
         <path
            id="path17"
            d="m 2045.25,246.559 v -29.973 h 17.68 c 11.19,0 16.66,5.266 16.66,15.019 0,9.329 -5.27,14.954 -16.72,14.954 z m 49.54,-14.454 c 0,-11.203 -5.45,-19.269 -15.41,-23.703 l 20.64,-39.55 v -1.18 h -16.7 l -18.2,36.726 h -19.87 v -36.726 h -15.21 v 91.094 h 32.83 c 20.7,0 31.92,-9.317 31.92,-26.661 v 0"
            style="fill:#ffffff;fill-opacity:1;fill-rule:nonzero;stroke:none"
            transform="matrix(0.13333333,0,0,-0.13333333,0,40.08)" />
         <path
            id="path18"
            d="m 2173.13,281.215 v -13.379 h -15.14 v 13.379 z m -27.78,0 v -13.379 h -15.08 v 13.379 z m 26.47,-22.449 h 15.19 v -61.055 c 0,-20.598 -14,-31.359 -35.72,-31.359 -21.27,0 -35.02,10.832 -35.02,31.359 v 61.055 h 15.19 v -61.055 c 0,-13.02 7.52,-19.219 19.83,-19.219 12.77,0 20.53,6.199 20.53,19.219 v 61.055"
            style="fill:#ffffff;fill-opacity:1;fill-rule:nonzero;stroke:none"
            transform="matrix(0.13333333,0,0,-0.13333333,0,40.08)" />
         <path
            id="path19"
            d="m 2262.62,197.203 h 15.19 c -1.81,-19.211 -13.81,-30.851 -34.9,-30.851 -21.58,0 -35.33,15.39 -35.33,38.164 v 17.336 c 0,22.586 14,38.222 35.33,38.222 21.52,0 32.97,-11.191 34.96,-31.211 h -15.19 c -1.57,12.696 -6.94,19.012 -19.77,19.012 -12.7,0 -20.2,-10.703 -20.2,-25.898 v -17.461 c 0,-15.45 7.39,-26.024 20.2,-26.024 12.58,0 18.14,6.133 19.71,18.699 v 0.012"
            style="fill:#ffffff;fill-opacity:1;fill-rule:nonzero;stroke:none"
            transform="matrix(0.13333333,0,0,-0.13333333,0,40.08)" />
         <path
            id="path20"
            d="m 2351.25,167.672 -29.28,40.047 -9.31,-10.332 v -29.715 h -15.2 v 91.094 h 15.2 v -42.11 l 35.82,42.11 h 18.02 l -34.16,-39.485 38.17,-51.609 h -19.26"
            style="fill:#ffffff;fill-opacity:1;fill-rule:nonzero;stroke:none"
            transform="matrix(0.13333333,0,0,-0.13333333,0,40.08)" />
         <path
            id="path21"
            d="m 684.863,96.6055 h 4.395 V 60.3281 c 0,-11.8867 -7.578,-18.0078 -19.297,-18.0078 -11.504,0 -19.004,6.1211 -19.004,18.0078 v 36.2774 h 4.414 V 60.3281 c 0,-9.3086 5.762,-14.3086 14.59,-14.3086 8.984,0 14.902,5 14.902,14.3086 v 36.2774"
            style="fill:#ffffff;fill-opacity:1;fill-rule:nonzero;stroke:none"
            transform="matrix(0.13333333,0,0,-0.13333333,0,40.08)" />
         <path
            id="path22"
            d="M 745.488,96.6055 V 43.082 h -4.375 l -30.488,46.1993 -0.117,-0.0391 V 43.082 h -4.414 v 53.5235 h 4.414 l 30.508,-46.1328 0.097,0.0312 v 46.1016 h 4.375"
            style="fill:#ffffff;fill-opacity:1;fill-rule:nonzero;stroke:none"
            transform="matrix(0.13333333,0,0,-0.13333333,0,40.08)" />
         <path
            id="path23"
            d="M 770.898,96.6055 V 43.082 h -4.394 v 53.5235 h 4.394"
            style="fill:#ffffff;fill-opacity:1;fill-rule:nonzero;stroke:none"
            transform="matrix(0.13333333,0,0,-0.13333333,0,40.08)" />
         <path
            id="path24"
            d="m 791.055,96.6055 16.054,-44.4805 1.094,-3.7812 h 0.156 l 1.094,3.7812 16.094,44.4805 h 4.746 L 810.371,43.082 h -4.18 L 786.27,96.6055 h 4.785"
            style="fill:#ffffff;fill-opacity:1;fill-rule:nonzero;stroke:none"
            transform="matrix(0.13333333,0,0,-0.13333333,0,40.08)" />
         <path
            id="path25"
            d="M 872.578,72.7383 V 69 H 846.816 V 46.7813 h 29.512 V 43.082 h -33.887 v 53.5235 h 33.692 V 92.8477 H 846.816 V 72.7383 h 25.762"
            style="fill:#ffffff;fill-opacity:1;fill-rule:nonzero;stroke:none"
            transform="matrix(0.13333333,0,0,-0.13333333,0,40.08)" />
         <path
            id="path26"
            d="M 897.598,92.8086 V 70.543 h 14.824 c 7.773,0 11.973,4.4922 11.973,10.9843 0,7.1016 -4.571,11.2813 -12.989,11.2813 z m 31.191,-11.3203 c 0,-6.6094 -4.082,-11.8242 -10.391,-13.711 L 931.582,43.6758 V 43.082 h -4.844 L 914.102,66.7813 H 897.598 V 43.082 h -4.375 v 53.4766 h 18.183 c 10.996,0 17.383,-5.332 17.383,-15.0703 v 0"
            style="fill:#ffffff;fill-opacity:1;fill-rule:nonzero;stroke:none"
            transform="matrix(0.13333333,0,0,-0.13333333,0,40.08)" />
         <path
            id="path27"
            d="m 977.246,56.1953 c 0,6.0078 -3.633,9.1602 -14.648,12.0625 -11.953,2.9766 -17.832,7.1367 -17.832,15.2539 0,8.3594 7.285,13.8555 18.047,13.8555 11.21,0 18.476,-6.7969 18.476,-16.0352 h -4.375 c 0,7.3243 -5.273,12.2969 -14.101,12.2969 -8.711,0 -13.672,-4.2305 -13.672,-10.0117 0,-5.4688 3.75,-8.7109 14.882,-11.5039 11.719,-2.9766 17.637,-7.4883 17.637,-15.8399 0,-8.6992 -7.578,-13.9531 -18.594,-13.9531 -10.918,0 -20.019,5.2813 -20.019,15.9766 h 4.375 c 0,-8.5274 7.012,-12.2774 15.644,-12.2774 8.633,0 14.18,3.9766 14.18,10.1758 v 0"
            style="fill:#ffffff;fill-opacity:1;fill-rule:nonzero;stroke:none"
            transform="matrix(0.13333333,0,0,-0.13333333,0,40.08)" />
         <path
            id="path28"
            d="M 1004.77,96.6055 V 43.082 h -4.4 v 53.5235 h 4.4"
            style="fill:#ffffff;fill-opacity:1;fill-rule:nonzero;stroke:none"
            transform="matrix(0.13333333,0,0,-0.13333333,0,40.08)" />
         <path
            id="path29"
            d="m 1060.53,96.6055 v -3.7578 h -18.19 V 43.082 h -4.39 v 49.7657 h -18.15 v 3.7578 h 40.73"
            style="fill:#ffffff;fill-opacity:1;fill-rule:nonzero;stroke:none"
            transform="matrix(0.13333333,0,0,-0.13333333,0,40.08)" />
         <path
            id="path30"
            d="m 1073.32,96.6055 16.47,-29.7461 16.58,29.7461 h 5.09 L 1091.95,62.6406 V 43.082 h -4.37 v 19.8125 l -19.36,33.711 h 5.1"
            style="fill:#ffffff;fill-opacity:1;fill-rule:nonzero;stroke:none"
            transform="matrix(0.13333333,0,0,-0.13333333,0,40.08)" />
         <path
            id="path31"
            d="m 1180.51,65.4648 v 8.7891 c 0,11.4649 -6.17,19.2461 -16.56,19.2461 -10.16,0 -16.2,-7.7812 -16.2,-19.2461 v -8.7891 c 0,-11.582 6.08,-19.3359 16.23,-19.3359 10.43,0 16.53,7.7227 16.53,19.3359 z m 4.41,8.711 v -8.711 c 0,-13.789 -8.18,-23.1445 -20.94,-23.1445 -12.53,0 -20.62,9.3555 -20.62,23.1445 v 8.711 c 0,13.7109 8.05,23.1914 20.59,23.1914 12.75,0 20.97,-9.4805 20.97,-23.1914 v 0"
            style="fill:#ffffff;fill-opacity:1;fill-rule:nonzero;stroke:none"
            transform="matrix(0.13333333,0,0,-0.13333333,0,40.08)" />
         <path
            id="path32"
            d="m 1230.96,71.9375 v -3.7773 h -26.04 V 43.082 h -4.35 v 53.5235 h 34.12 v -3.7578 h -29.77 V 71.9375 h 26.04"
            style="fill:#ffffff;fill-opacity:1;fill-rule:nonzero;stroke:none"
            transform="matrix(0.13333333,0,0,-0.13333333,0,40.08)" />
         <path
            id="path33"
            d="m 1286.5,91.1953 -10.87,-29.2578 h 21.6 z m 17.68,-48.1133 -5.55,15.1055 h -24.41 l -5.57,-15.1055 h -4.55 l 20.31,53.5235 h 4.16 l 20.18,-53.5235 h -4.57"
            style="fill:#ffffff;fill-opacity:1;fill-rule:nonzero;stroke:none"
            transform="matrix(0.13333333,0,0,-0.13333333,0,40.08)" />
         <path
            id="path34"
            d="M 1325.25,92.8477 V 69.0781 h 14.05 c 9,0 13.26,4.8828 13.26,11.8242 0,7.0235 -4.26,11.9454 -13.26,11.9454 z m 14.05,-27.5313 h -14.05 V 43.082 h -4.37 v 53.5235 h 18.42 c 11.46,0 17.63,-6.0742 17.63,-15.6328 0,-9.7071 -6.17,-15.6641 -17.63,-15.6641 v 0.0078"
            style="fill:#ffffff;fill-opacity:1;fill-rule:nonzero;stroke:none"
            transform="matrix(0.13333333,0,0,-0.13333333,0,40.08)" />
         <path
            id="path35"
            d="M 1374.08,92.8477 V 69.0781 h 14.03 c 9.02,0 13.28,4.8828 13.28,11.8242 0,7.0235 -4.26,11.9454 -13.28,11.9454 z m 14.03,-27.5313 h -14.03 V 43.082 h -4.37 v 53.5235 h 18.4 c 11.48,0 17.65,-6.0742 17.65,-15.6328 0,-9.7071 -6.17,-15.6641 -17.65,-15.6641 v 0.0078"
            style="fill:#ffffff;fill-opacity:1;fill-rule:nonzero;stroke:none"
            transform="matrix(0.13333333,0,0,-0.13333333,0,40.08)" />
         <path
            id="path36"
            d="M 1424.43,96.6055 V 46.7813 h 26.47 V 43.082 h -30.86 v 53.5235 h 4.39"
            style="fill:#ffffff;fill-opacity:1;fill-rule:nonzero;stroke:none"
            transform="matrix(0.13333333,0,0,-0.13333333,0,40.08)" />
         <path
            id="path37"
            d="M 1471.41,96.6055 V 43.082 h -4.42 v 53.5235 h 4.42"
            style="fill:#ffffff;fill-opacity:1;fill-rule:nonzero;stroke:none"
            transform="matrix(0.13333333,0,0,-0.13333333,0,40.08)" />
         <path
            id="path38"
            d="M 1522.54,72.7383 V 69 H 1496.8 V 46.7813 h 29.49 V 43.082 h -33.87 v 53.5235 h 33.69 V 92.8477 H 1496.8 V 72.7383 h 25.74"
            style="fill:#ffffff;fill-opacity:1;fill-rule:nonzero;stroke:none"
            transform="matrix(0.13333333,0,0,-0.13333333,0,40.08)" />
         <path
            id="path39"
            d="m 1558.87,92.8477 h -11.19 V 46.7813 h 10.86 c 11.48,0 18.51,7.8437 18.51,19.6015 v 6.9922 c 0,11.7578 -7.03,19.4727 -18.18,19.4727 z m -0.33,-49.7657 h -15.22 v 53.5235 h 15.55 c 13.55,0 22.58,-9.3438 22.58,-23.3477 v -6.875 c 0,-14.1133 -8.95,-23.3008 -22.91,-23.3008"
            style="fill:#ffffff;fill-opacity:1;fill-rule:nonzero;stroke:none"
            transform="matrix(0.13333333,0,0,-0.13333333,0,40.08)" />
         <path
            id="path40"
            d="m 1653.57,56.1953 c 0,6.0078 -3.63,9.1602 -14.66,12.0625 -11.96,2.9766 -17.82,7.1367 -17.82,15.2539 0,8.3594 7.27,13.8555 18.03,13.8555 11.21,0 18.5,-6.7969 18.5,-16.0352 h -4.38 c 0,7.3243 -5.29,12.2969 -14.12,12.2969 -8.71,0 -13.67,-4.2305 -13.67,-10.0117 0,-5.4688 3.75,-8.7109 14.88,-11.5039 11.74,-2.9766 17.64,-7.4883 17.64,-15.8399 0,-8.6992 -7.56,-13.9531 -18.59,-13.9531 -10.9,0 -20.02,5.2813 -20.02,15.9766 h 4.37 c 0,-8.5274 7.03,-12.2774 15.65,-12.2774 8.63,0 14.19,3.9766 14.19,10.1758 v 0"
            style="fill:#ffffff;fill-opacity:1;fill-rule:nonzero;stroke:none"
            transform="matrix(0.13333333,0,0,-0.13333333,0,40.08)" />
         <path
            id="path41"
            d="m 1704.92,59.7422 h 4.38 c -1.17,-11.1836 -7.93,-17.4219 -19.42,-17.4219 -12.15,0 -19.9,9.1797 -19.9,23.1445 v 8.711 c 0,13.9258 7.75,23.1914 19.9,23.1914 11.58,0 18.28,-6.0938 19.42,-17.4609 h -4.38 c -1.17,9.0937 -5.88,13.7226 -15.04,13.7226 -9.55,0 -15.5,-7.793 -15.5,-19.375 v -8.7891 c 0,-11.7187 5.95,-19.4453 15.5,-19.4453 9.24,0 13.87,4.336 15.04,13.7227 v 0"
            style="fill:#ffffff;fill-opacity:1;fill-rule:nonzero;stroke:none"
            transform="matrix(0.13333333,0,0,-0.13333333,0,40.08)" />
         <path
            id="path42"
            d="M 1731.78,96.6055 V 43.082 h -4.4 v 53.5235 h 4.4"
            style="fill:#ffffff;fill-opacity:1;fill-rule:nonzero;stroke:none"
            transform="matrix(0.13333333,0,0,-0.13333333,0,40.08)" />
         <path
            id="path43"
            d="M 1782.93,72.7383 V 69 h -25.74 V 46.7813 h 29.49 V 43.082 h -33.87 v 53.5235 h 33.69 v -3.7578 h -29.31 V 72.7383 h 25.74"
            style="fill:#ffffff;fill-opacity:1;fill-rule:nonzero;stroke:none"
            transform="matrix(0.13333333,0,0,-0.13333333,0,40.08)" />
         <path
            id="path44"
            d="M 1841.58,96.6055 V 43.082 h -4.37 l -30.49,46.1993 -0.12,-0.0391 V 43.082 h -4.41 v 53.5235 h 4.41 l 30.49,-46.1328 0.12,0.0312 v 46.1016 h 4.37"
            style="fill:#ffffff;fill-opacity:1;fill-rule:nonzero;stroke:none"
            transform="matrix(0.13333333,0,0,-0.13333333,0,40.08)" />
         <path
            id="path45"
            d="m 1892.34,59.7422 h 4.38 c -1.17,-11.1836 -7.95,-17.4219 -19.4,-17.4219 -12.16,0 -19.92,9.1797 -19.92,23.1445 v 8.711 c 0,13.9258 7.76,23.1914 19.92,23.1914 11.59,0 18.27,-6.0938 19.4,-17.4609 h -4.38 c -1.17,9.0937 -5.88,13.7226 -15.02,13.7226 -9.57,0 -15.5,-7.793 -15.5,-19.375 v -8.7891 c 0,-11.7187 5.93,-19.4453 15.5,-19.4453 9.22,0 13.85,4.336 15.02,13.7227 v 0"
            style="fill:#ffffff;fill-opacity:1;fill-rule:nonzero;stroke:none"
            transform="matrix(0.13333333,0,0,-0.13333333,0,40.08)" />
         <path
            id="path46"
            d="M 1941.72,72.7383 V 69 h -25.76 V 46.7813 h 29.51 V 43.082 h -33.89 v 53.5235 h 33.69 v -3.7578 h -29.31 V 72.7383 h 25.76"
            style="fill:#ffffff;fill-opacity:1;fill-rule:nonzero;stroke:none"
            transform="matrix(0.13333333,0,0,-0.13333333,0,40.08)" />
         <path
            id="path47"
            d="m 1989.32,56.1953 c 0,6.0078 -3.64,9.1602 -14.65,12.0625 -11.96,2.9766 -17.83,7.1367 -17.83,15.2539 0,8.3594 7.28,13.8555 18.04,13.8555 11.21,0 18.48,-6.7969 18.48,-16.0352 h -4.38 c 0,7.3243 -5.27,12.2969 -14.1,12.2969 -8.71,0 -13.67,-4.2305 -13.67,-10.0117 0,-5.4688 3.75,-8.7109 14.88,-11.5039 11.72,-2.9766 17.64,-7.4883 17.64,-15.8399 0,-8.6992 -7.56,-13.9531 -18.59,-13.9531 -10.92,0 -20.02,5.2813 -20.02,15.9766 h 4.37 c 0,-8.5274 7.03,-12.2774 15.65,-12.2774 8.63,0 14.18,3.9766 14.18,10.1758 v 0"
            style="fill:#ffffff;fill-opacity:1;fill-rule:nonzero;stroke:none"
            transform="matrix(0.13333333,0,0,-0.13333333,0,40.08)" />
         <path
            id="path48"
            d="M 479.902,208.723 354.727,158.621 V 258.82 Z"
            style="fill:#ffffff;fill-opacity:1;fill-rule:nonzero;stroke:none"
            transform="matrix(0.13333333,0,0,-0.13333333,0,40.08)" />
         <path
            id="path49"
            d="M 146.074,158.621 20.8594,208.723 250.41,300.559 V 200.383 L 146.074,158.621"
            style="fill:#ffffff;fill-opacity:1;fill-rule:nonzero;stroke:none"
            transform="matrix(0.13333333,0,0,-0.13333333,0,40.08)" />
         <path
            id="path50"
            d="M 0,200.383 V 100.195 L 146.074,41.7461 V 141.934 L 0,200.383 Z m 4.39844,-6.5 137.27756,-54.93 V 48.2461 L 4.39844,103.176 v 90.707"
            style="fill:#ffffff;fill-opacity:1;fill-rule:nonzero;stroke:none"
            transform="matrix(0.13333333,0,0,-0.13333333,0,40.08)" />
         <path
            id="path51"
            d="M 500.781,200.383 250.41,100.195 V 0 l 250.371,100.195 v 100.188 z m -4.398,-6.5 V 103.176 L 254.809,6.5 v 90.7188 l 241.574,96.6642"
            style="fill:#ffffff;fill-opacity:1;fill-rule:nonzero;stroke:none"
            transform="matrix(0.13333333,0,0,-0.13333333,0,40.08)" />
      </g>
   </g>
</svg>